# xmcd
#
# Track frame offsets:
#  150
#  15150
#  27158
#  44349
#  62981
#  79850
#  94495
#  113049
#  135599
#  149838
#  168204
#  186276
#
# Disc length: 2653 seconds
#
# Revision: 0
# Processed by: cddbd v1.5.2PL0 Copyright (c) Steve Scherf et al.
# Submitted via: AltoMP3_Maker 3.0
#
DISCID=a20a5b0c
DTITLE=Elba Ramalho - Do meu olhar pra fora
DYEAR=1900
DGENRE=
TTITLE0=Olhando o coração
TTITLE1=Fazê o quê
TTITLE2=Só pra lembrar
TTITLE3=É o que me interessa
TTITLE4=Nossa Senhora da Paz
TTITLE5=Contrato de separação
TTITLE6=Nos ares de Lisboa - Um passarinho Enganador
TTITLE7=Árvore
TTITLE8=Patchuli
TTITLE9=La noyée
TTITLE10=Risoflora
TTITLE11=Ser Livre
EXTD=
EXTT0=
EXTT1=
EXTT2=
EXTT3=
EXTT4=
EXTT5=
EXTT6=
EXTT7=
EXTT8=
EXTT9=
EXTT10=
EXTT11=
PLAYORDER=
